<svg xmlns="http://www.w3.org/2000/svg" version="1.1" xmlns:xlink="http://www.w3.org/1999/xlink" width="512" height="512" x="0" y="0" viewBox="0 0 800 800" style="enable-background:new 0 0 512 512" xml:space="preserve" class=""><g><linearGradient id="a" x1="72.293" x2="727.707" y1="400" y2="400" gradientUnits="userSpaceOnUse"><stop offset="0" stop-color="#b64dff"></stop><stop offset="1" stop-color="#11bbe9"></stop></linearGradient><path fill="url(#a)" d="M280.7 575c-41.4 0-75 33.6-75 75s33.6 75 75 75c41.3 0 75-33.6 75-75s-33.6-75-75-75zm0 100c-13.8 0-25-11.2-25-25s11.2-25 25-25c13.7 0 25 11.2 25 25s-11.2 25-25 25zm300-100c-41.4 0-75 33.6-75 75s33.6 75 75 75c41.3 0 75-33.6 75-75s-33.6-75-75-75zm0 100c-13.8 0-25-11.2-25-25s11.2-25 25-25c13.7 0 25 11.2 25 25s-11.2 25-25 25zM397.3 275h-100c-13.8 0-25 11.2-25 25s11.2 25 25 25h100c13.8 0 25-11.2 25-25s-11.2-25-25-25zm320.2-66.3c-14.7-22.2-38.9-28.1-55.9-30.6-20.8-3.1-46.7-3.1-82.6-3.1H220.8c-1.9-19.1-6.1-33.7-15.8-47.2-14.7-20.4-58.6-37.8-99.8-51.5C92.1 71.9 78 79 73.6 92.2c-4.4 13.1 2.7 27.2 15.8 31.6 34.4 11.5 69.7 26 75 33.3 7.6 10.5 7.9 29.8 7.9 72.4v87.2c0 48.9 0 84.2 3.9 113.1 4.5 34 14.6 57.2 32.7 75.3 18 18 41.3 28.1 75.3 32.7 28.9 3.9 64.2 3.9 113.1 3.9H664c13.8 0 25-11.3 25-25.1s-11.2-25-25-25H397.3c-87.2 0-131 0-153-22-3.3-3.3-6.1-7-8.4-11.3h328.8c34.6 0 55.5 0 74.4-12.4 18.8-12.4 27-31.6 40.6-63.4l14.3-33.3c14.1-33 24.3-56.8 29.7-77.1 4.3-16.6 8.4-41.2-6.2-63.4zm-69.6 120.9-14.3 33.3c-9.9 23.2-15.9 37.2-22.2 41.3-6.2 4.1-21.5 4.1-46.7 4.1H224.2c-1.9-23.4-1.9-53.3-1.9-91.7V225H579c51.8 0 89.3 0 96.7 11.3 7.4 11.2-7.4 45.6-27.8 93.3z" opacity="1" data-original="url(#a)" class=""></path></g></svg>